<?xml version="1.0" encoding="UTF-8"?><svg id="Layer_0_Image" data-name="Layer 0 Image" xmlns="http://www.w3.org/2000/svg" viewBox="0 0 800 600" x="0px" y="0px" width="800px" height="600px" xmlns:xlink="http://www.w3.org/1999/xlink" version="1.1"><title>1</title><path d="M573.917,253.554c8.637,4.889,16.779,10.208,25.513,14.247a140.04,140.04,0,0,0,28.935,9.742c8.3,1.814,16.41,4.386,25.056,3.533,6.512,3.418,13.521,1.46,20.3,1.713,2.772.1,5.584-1.542,8.393-1.593,3.025-.056,5.73-1.555,8.407-1.735,9.9-.663,18.864-5.244,28.63-6.242.718-.073,1.35-.979,2.284-1.7l8.348,5.5-7.747,5.729h9.157l-2.508,5.842,1.93,3.118c-1.294,3.293-2.025,7.843-4.548,10.928-3.511,4.3-8.179,7.748-12.728,11.041a12.379,12.379,0,0,1-7.289,2.054c-5.4-.224-10.23,3.27-15.746,2.067-.808-.177-1.914,1.011-3.029,1.651-.359-1.017-.733-2.078-1.116-3.162h-34.25c3.385,1.843,6.951,1.3,10.446,1.387,3.964.094,7.932,0,11.9.03,3.523.03,7.046.128,10.555,1.823-6.909,0-13.818.036-20.726-.009-8.21-.055-16.58.886-24.12-3.637-8.246.126-15.685-3.038-23.414-5.279a21.109,21.109,0,0,1-9.562-5.724c-.43.431-.858.864-1.65,1.668-5.472-2.95-10.848-6.581-16.757-8.781-4.08-1.52-5.684-5.975-10.036-6.773-1.6-.294-3.032-1.475-5.4-2.694-2.661-.871-6.953,2-10.13-1.7-.431.43-.863.861-1.552,1.551L559.1,286.8l-1.309,3.256h-3.035l1.678-2.77c-.512-.238-1.19-.814-1.51-.658-2.29,1.119-4.524,2.358-6.743,3.617-1.989,1.128-3.935,2.331-6.358,3.774l-2.67-1.727-1.645,3.438-1.393-1.285c-1.882,1.521-3.636,4.111-5.691,4.376-5.625.723-9.718,4.621-14.889,6.221-2.621.811-4.882,3.1-7.045,5.015a83.742,83.742,0,0,1-23.855,15.18l-2.18-2.029-3.508,3.542h-7.853c-1.136,1.869-2.177,3.581-3.342,5.5h-3.21c-1.048,1.325-1.782,3.225-3.022,3.651-5.751,1.974-11.01,6.039-17.971,2.22-2.967-1.628-7.57-.272-11.451,1.232l11.007.671-.049,1.064H430.766c-.383-1.086-.757-2.147-1.387-3.936-4.3,4.127-8.711,2.533-12.994.666-6.022-2.625-11.852-5.337-17.141-9.622-6.838-5.54-14.1-10.807-22.433-14.174a20.089,20.089,0,0,1-2.81-1.867H363.283c-.35-.538-.649-.809-.6-.958.091-.259.423-.424.607-.664.313-.408.589-.845,1.132-1.635H357.87c-.445-1.32-.8-2.373-1.243-3.686l-3.761-.618,2.178,3.106-1.926,2.121,5.728,1.137c-11.989,1.92-23.461,6.686-35.637,4.67-2.209,6.23-6.85,7.778-12.806,7.561-7.78,7.165-15.539,14.673-23.695,21.722-8.5,7.345-18.167,13.422-29.019,15.93-9.143,2.112-18.816,5.57-28.432.859a6.114,6.114,0,0,0-2.723-.042c-9.287.451-17.3-3.617-25.294-7.431-3.344-1.6-5.944-4.717-9.255-6.423-4.541-2.341-9.54-3.46-14.551-4.728-8.961-2.266-17.855-1.213-26.771-1.525a70.256,70.256,0,0,0-24.123,3.586,4.486,4.486,0,0,1-2.711-.029,9.316,9.316,0,0,1-2.261-1.85c-.364,1.087-.712,2.126-1.316,3.927l-4.448-1.691c-.163.615-.38,1.436-.749,2.832-7.422,2.126-13.494,9.249-22.569,7.8l-2.71,2.71,1.952,2.175c-4.351,3.247-9.285,5.926-12.839,9.854-3.776,4.174-7.269,8.432-12.775,12.2-.465.992-1.423,3.03-2.559,5.449l-4.578,2.629c-.514,5.521-.514,5.521-3.269,8.832l-7.94-7.941v-16c.4-.277,3.059-1.217,3.156-2.371.393-4.711,5.248-6.136,6.586-10,1.422-4.1,4.967-6.552,7.724-9.625C69,349.837,72.7,345.581,76.239,341.2c7.979-9.872,24.492-20.1,39.537-23.562,3.554-.818,6.889-2.545,10.41-3.555,3.324-.953,6.972,1.241,10.384-1.676,1.41-1.206,4.71-.2,5.044-.2l5.724,2.93c-1.2,1.663-1.861,2.584-2.811,3.9h11.189l-5.781-2.018c5.019-5.257,9.825-9.249,17.311-5.163a5.86,5.86,0,0,0,2.6.332c11.324.159,21.193,4.019,30.493,10.506,3.766,2.628,8.748,4.752,13.769,4.054,4.925-.686,9.228,1.689,13.9,1.921,14.193.705,26.522-4.564,37.866-12.389A147.057,147.057,0,0,0,283.1,302.677c9.239-8.672,20.327-13.9,32.021-17.794,8.407-2.8,17.387-3.807,25.986-5.912,9.007-2.2,17.9-.644,26.758-1.657,5.745-.657,10.275,1.95,14.59,4.626,9.525,5.907,18.575,12.575,28.04,18.584,4.358,2.765,9.636,3.548,14.668,4.266,9.211,1.315,18.074-1.151,26.61-4.159,6.891-2.428,13.434-5.861,20.083-8.953,11.156-5.189,21.338-11.989,31.745-18.51,10.481-6.567,21.722-12.252,34.383-14.163,3.867-.584,7.6-2.228,11.318-3.587C557.431,252.45,565.84,254.022,573.917,253.554Z"/></svg>