<svg viewBox='0 0 800 275' width='80' height='27' class='line'>
 <g>
  <path
    d="m38.5,190.45313c0,-1 2.70148,-3.26813 18,-20c17.66091,-19.31558 42.57689,-45.43329 61,-63c21.51799,-20.5177 34.82425,-29.44879 42,-32c6.85948,-2.43878 12.44208,-4.6684 15,-1c5.17938,7.42792 2.63203,25.37418 -8,68c-7.81216,31.32043 -14.68932,50.83484 -17,62c-1.43303,6.92435 -1.22704,11.20081 1,11c9.95959,-0.89804 29.59489,-28.41046 61,-59c38.5099,-37.50983 69.06616,-65.31372 108,-92c21.50919,-14.74297 42.72232,-24.88342 51,-27c6.85065,-1.75169 12.49902,-1.04668 13,7c1.3049,20.95943 -8.77878,54.76117 -21,96c-8.54776,28.84329 -13.83185,49.83569 -16,63c-1.63321,9.91629 -1.10831,15.34906 3,15c27.21494,-2.31238 57.4971,-31.34265 100,-64c29.35019,-22.55139 49.55255,-39.59387 60,-47c7.69632,-5.45587 11,-6 11,-6c0,1 -0.30182,10.14682 -4,26c-5.89786,25.28271 -14.09601,55.98004 -18,75c-2.05048,9.98978 -4.57642,18.76917 -3,20c3.24985,2.53741 26.12305,-17.85767 62,-49c48.16595,-41.80957 82.58472,-69.6152 109,-87c23.64136,-15.55917 33.83551,-20.99399 43,-22c6.95819,-0.76382 11.97382,2.51422 14,15c3.04346,18.75467 -3.10565,57.97549 -7,75c-2.05585,8.9874 -4,16 -4,18c0,1 0.04816,1.53528 3,1c8.40692,-1.52448 19.97351,-8.06009 29,-12c6.97986,-3.0466 11,-5 13,-5c0,0 0,0 0,1l0,0"
    stroke-width="27.5"
    stroke="#fff"
    fill="none"
  />
 </g>
</svg>