<svg viewBox="0 0 800 600" width="25px" height="15px">
  <path d="M426.006,138.684c2.379-3.359,1.115-6.76,1.645-9.9.309-1.829,1.419-4.876,2.456-4.267,7.34,4.314,17.235-2.646,23.5,5.484C479.043,163,513.317,187.188,541.1,217.846c1.952,2.154,4.044,4.181,6.021,6.313,11.424,12.322,11.419,12.327-2.559,20.3-14.382,8.2-15.788,8.255-29.445-2.685-28.373-22.728-56.623-45.617-83.668-69.929-8.434-7.581-16.09-15.969-17.964-27.85a34.269,34.269,0,0,1-.289-9.7c.367-2.781,1.3-6.308,4.711-6.577,3.54-.28,2.963,3.382,3.7,5.629C422.271,135.406,422.8,137.551,426.006,138.684Z"/>
  <path d="M315.862,269.6c14.22.909,26.337,7.449,38.212,14.618,25.79,15.571,48.908,35.162,75.208,49.977,5.085,2.865,5.037,5.5.375,9.855-13.541,12.652-26.7,6.924-39.44-.291-25.569-14.478-50.73-29.678-76.136-44.446-6.584-3.827-13.417-7.232-20.205-10.694-3.927-2-4.523-5.395-4.228-9.186.3-3.924,2.775-4.92,6.45-5.853C302.636,271.92,308.931,269.349,315.862,269.6Z"/>
  <path d="M300.744,475.307c-14.9,0-29.79.069-44.683-.04-4.741-.034-9.746-.069-11.225-6.206-1.351-5.6,3.715-6.051,6.581-8.455,5.523-4.632,11.986-6.768,18.866-7.831,29.929-4.625,59.883-6.608,89.914-.7,3.25.64,6.695.564,8.148,4.206,1.642,4.119-2.379,5.236-4.089,7.76-7.985,11.786-19.721,11.788-31.94,11.41-10.515-.326-21.048-.068-31.572-.068Z"/>
</svg>